{
 "cells": [
  {
   "cell_type": "markdown",
   "metadata": {},
   "source": [
    "## Youtube right there\n"
   ]
  },
  {
   "cell_type": "code",
   "execution_count": 1,
   "metadata": {},
   "outputs": [
    {
     "name": "stderr",
     "output_type": "stream",
     "text": [
      "ffmpeg version 4.3 Copyright (c) 2000-2020 the FFmpeg developers\n",
      "  built with gcc 7.3.0 (crosstool-NG 1.23.0.449-a04d0)\n",
      "  configuration: --prefix=/home/lovecrush/miniconda3 --cc=/opt/conda/conda-bld/ffmpeg_1597178665428/_build_env/bin/x86_64-conda_cos6-linux-gnu-cc --disable-doc --disable-openssl --enable-avresample --enable-gnutls --enable-hardcoded-tables --enable-libfreetype --enable-libopenh264 --enable-pic --enable-pthreads --enable-shared --disable-static --enable-version3 --enable-zlib --enable-libmp3lame\n",
      "  libavutil      56. 51.100 / 56. 51.100\n",
      "  libavcodec     58. 91.100 / 58. 91.100\n",
      "  libavformat    58. 45.100 / 58. 45.100\n",
      "  libavdevice    58. 10.100 / 58. 10.100\n",
      "  libavfilter     7. 85.100 /  7. 85.100\n",
      "  libavresample   4.  0.  0 /  4.  0.  0\n",
      "  libswscale      5.  7.100 /  5.  7.100\n",
      "  libswresample   3.  7.100 /  3.  7.100\n",
      "Input #0, mov,mp4,m4a,3gp,3g2,mj2, from 'source_1.mp4':\n",
      "  Metadata:\n",
      "    major_brand     : isom\n",
      "    minor_version   : 512\n",
      "    compatible_brands: isomiso2avc1mp41\n",
      "    encoder         : Lavf61.6.100\n",
      "  Duration: 00:09:42.19, start: 0.000000, bitrate: 1426 kb/s\n",
      "    Stream #0:0(und): Video: h264 (High) (avc1 / 0x31637661), yuv420p(tv, bt709), 1920x1080 [SAR 1:1 DAR 16:9], 1292 kb/s, 23.98 fps, 23.98 tbr, 24k tbn, 47.95 tbc (default)\n",
      "    Metadata:\n",
      "      handler_name    : VideoHandler\n",
      "    Stream #0:1(eng): Audio: aac (LC) (mp4a / 0x6134706D), 44100 Hz, stereo, fltp, 128 kb/s (default)\n",
      "    Metadata:\n",
      "      handler_name    : ISO Media file produced by Google Inc.\n",
      "output_clips//clip_1.mp4: No such file or directory\n",
      "ffmpeg version 4.3 Copyright (c) 2000-2020 the FFmpeg developers\n",
      "  built with gcc 7.3.0 (crosstool-NG 1.23.0.449-a04d0)\n",
      "  configuration: --prefix=/home/lovecrush/miniconda3 --cc=/opt/conda/conda-bld/ffmpeg_1597178665428/_build_env/bin/x86_64-conda_cos6-linux-gnu-cc --disable-doc --disable-openssl --enable-avresample --enable-gnutls --enable-hardcoded-tables --enable-libfreetype --enable-libopenh264 --enable-pic --enable-pthreads --enable-shared --disable-static --enable-version3 --enable-zlib --enable-libmp3lame\n",
      "  libavutil      56. 51.100 / 56. 51.100\n",
      "  libavcodec     58. 91.100 / 58. 91.100\n",
      "  libavformat    58. 45.100 / 58. 45.100\n",
      "  libavdevice    58. 10.100 / 58. 10.100\n",
      "  libavfilter     7. 85.100 /  7. 85.100\n",
      "  libavresample   4.  0.  0 /  4.  0.  0\n",
      "  libswscale      5.  7.100 /  5.  7.100\n",
      "  libswresample   3.  7.100 /  3.  7.100\n",
      "Input #0, mov,mp4,m4a,3gp,3g2,mj2, from 'source_1.mp4':\n",
      "  Metadata:\n",
      "    major_brand     : isom\n",
      "    minor_version   : 512\n",
      "    compatible_brands: isomiso2avc1mp41\n",
      "    encoder         : Lavf61.6.100\n",
      "  Duration: 00:09:42.19, start: 0.000000, bitrate: 1426 kb/s\n",
      "    Stream #0:0(und): Video: h264 (High) (avc1 / 0x31637661), yuv420p(tv, bt709), 1920x1080 [SAR 1:1 DAR 16:9], 1292 kb/s, 23.98 fps, 23.98 tbr, 24k tbn, 47.95 tbc (default)\n",
      "    Metadata:\n",
      "      handler_name    : VideoHandler\n",
      "    Stream #0:1(eng): Audio: aac (LC) (mp4a / 0x6134706D), 44100 Hz, stereo, fltp, 128 kb/s (default)\n",
      "    Metadata:\n",
      "      handler_name    : ISO Media file produced by Google Inc.\n",
      "output_clips//clip_2.mp4: No such file or directory\n",
      "ffmpeg version 4.3 Copyright (c) 2000-2020 the FFmpeg developers\n",
      "  built with gcc 7.3.0 (crosstool-NG 1.23.0.449-a04d0)\n",
      "  configuration: --prefix=/home/lovecrush/miniconda3 --cc=/opt/conda/conda-bld/ffmpeg_1597178665428/_build_env/bin/x86_64-conda_cos6-linux-gnu-cc --disable-doc --disable-openssl --enable-avresample --enable-gnutls --enable-hardcoded-tables --enable-libfreetype --enable-libopenh264 --enable-pic --enable-pthreads --enable-shared --disable-static --enable-version3 --enable-zlib --enable-libmp3lame\n",
      "  libavutil      56. 51.100 / 56. 51.100\n",
      "  libavcodec     58. 91.100 / 58. 91.100\n",
      "  libavformat    58. 45.100 / 58. 45.100\n",
      "  libavdevice    58. 10.100 / 58. 10.100\n",
      "  libavfilter     7. 85.100 /  7. 85.100\n",
      "  libavresample   4.  0.  0 /  4.  0.  0\n",
      "  libswscale      5.  7.100 /  5.  7.100\n",
      "  libswresample   3.  7.100 /  3.  7.100\n",
      "Input #0, mov,mp4,m4a,3gp,3g2,mj2, from 'source_1.mp4':\n",
      "  Metadata:\n",
      "    major_brand     : isom\n",
      "    minor_version   : 512\n",
      "    compatible_brands: isomiso2avc1mp41\n",
      "    encoder         : Lavf61.6.100\n",
      "  Duration: 00:09:42.19, start: 0.000000, bitrate: 1426 kb/s\n",
      "    Stream #0:0(und): Video: h264 (High) (avc1 / 0x31637661), yuv420p(tv, bt709), 1920x1080 [SAR 1:1 DAR 16:9], 1292 kb/s, 23.98 fps, 23.98 tbr, 24k tbn, 47.95 tbc (default)\n",
      "    Metadata:\n",
      "      handler_name    : VideoHandler\n",
      "    Stream #0:1(eng): Audio: aac (LC) (mp4a / 0x6134706D), 44100 Hz, stereo, fltp, 128 kb/s (default)\n",
      "    Metadata:\n",
      "      handler_name    : ISO Media file produced by Google Inc.\n",
      "output_clips//clip_3.mp4: No such file or directory\n",
      "ffmpeg version 4.3 Copyright (c) 2000-2020 the FFmpeg developers\n",
      "  built with gcc 7.3.0 (crosstool-NG 1.23.0.449-a04d0)\n",
      "  configuration: --prefix=/home/lovecrush/miniconda3 --cc=/opt/conda/conda-bld/ffmpeg_1597178665428/_build_env/bin/x86_64-conda_cos6-linux-gnu-cc --disable-doc --disable-openssl --enable-avresample --enable-gnutls --enable-hardcoded-tables --enable-libfreetype --enable-libopenh264 --enable-pic --enable-pthreads --enable-shared --disable-static --enable-version3 --enable-zlib --enable-libmp3lame\n",
      "  libavutil      56. 51.100 / 56. 51.100\n",
      "  libavcodec     58. 91.100 / 58. 91.100\n",
      "  libavformat    58. 45.100 / 58. 45.100\n",
      "  libavdevice    58. 10.100 / 58. 10.100\n",
      "  libavfilter     7. 85.100 /  7. 85.100\n",
      "  libavresample   4.  0.  0 /  4.  0.  0\n",
      "  libswscale      5.  7.100 /  5.  7.100\n",
      "  libswresample   3.  7.100 /  3.  7.100\n",
      "Input #0, mov,mp4,m4a,3gp,3g2,mj2, from 'source_1.mp4':\n",
      "  Metadata:\n",
      "    major_brand     : isom\n",
      "    minor_version   : 512\n",
      "    compatible_brands: isomiso2avc1mp41\n",
      "    encoder         : Lavf61.6.100\n",
      "  Duration: 00:09:42.19, start: 0.000000, bitrate: 1426 kb/s\n",
      "    Stream #0:0(und): Video: h264 (High) (avc1 / 0x31637661), yuv420p(tv, bt709), 1920x1080 [SAR 1:1 DAR 16:9], 1292 kb/s, 23.98 fps, 23.98 tbr, 24k tbn, 47.95 tbc (default)\n",
      "    Metadata:\n",
      "      handler_name    : VideoHandler\n",
      "    Stream #0:1(eng): Audio: aac (LC) (mp4a / 0x6134706D), 44100 Hz, stereo, fltp, 128 kb/s (default)\n",
      "    Metadata:\n",
      "      handler_name    : ISO Media file produced by Google Inc.\n",
      "output_clips//clip_4.mp4: No such file or directory\n",
      "ffmpeg version 4.3 Copyright (c) 2000-2020 the FFmpeg developers\n",
      "  built with gcc 7.3.0 (crosstool-NG 1.23.0.449-a04d0)\n",
      "  configuration: --prefix=/home/lovecrush/miniconda3 --cc=/opt/conda/conda-bld/ffmpeg_1597178665428/_build_env/bin/x86_64-conda_cos6-linux-gnu-cc --disable-doc --disable-openssl --enable-avresample --enable-gnutls --enable-hardcoded-tables --enable-libfreetype --enable-libopenh264 --enable-pic --enable-pthreads --enable-shared --disable-static --enable-version3 --enable-zlib --enable-libmp3lame\n",
      "  libavutil      56. 51.100 / 56. 51.100\n",
      "  libavcodec     58. 91.100 / 58. 91.100\n",
      "  libavformat    58. 45.100 / 58. 45.100\n",
      "  libavdevice    58. 10.100 / 58. 10.100\n",
      "  libavfilter     7. 85.100 /  7. 85.100\n",
      "  libavresample   4.  0.  0 /  4.  0.  0\n",
      "  libswscale      5.  7.100 /  5.  7.100\n",
      "  libswresample   3.  7.100 /  3.  7.100\n",
      "Input #0, mov,mp4,m4a,3gp,3g2,mj2, from 'source_1.mp4':\n",
      "  Metadata:\n",
      "    major_brand     : isom\n",
      "    minor_version   : 512\n",
      "    compatible_brands: isomiso2avc1mp41\n",
      "    encoder         : Lavf61.6.100\n",
      "  Duration: 00:09:42.19, start: 0.000000, bitrate: 1426 kb/s\n",
      "    Stream #0:0(und): Video: h264 (High) (avc1 / 0x31637661), yuv420p(tv, bt709), 1920x1080 [SAR 1:1 DAR 16:9], 1292 kb/s, 23.98 fps, 23.98 tbr, 24k tbn, 47.95 tbc (default)\n",
      "    Metadata:\n",
      "      handler_name    : VideoHandler\n",
      "    Stream #0:1(eng): Audio: aac (LC) (mp4a / 0x6134706D), 44100 Hz, stereo, fltp, 128 kb/s (default)\n",
      "    Metadata:\n",
      "      handler_name    : ISO Media file produced by Google Inc.\n",
      "output_clips//clip_5.mp4: No such file or directory\n",
      "ffmpeg version 4.3 Copyright (c) 2000-2020 the FFmpeg developers\n",
      "  built with gcc 7.3.0 (crosstool-NG 1.23.0.449-a04d0)\n",
      "  configuration: --prefix=/home/lovecrush/miniconda3 --cc=/opt/conda/conda-bld/ffmpeg_1597178665428/_build_env/bin/x86_64-conda_cos6-linux-gnu-cc --disable-doc --disable-openssl --enable-avresample --enable-gnutls --enable-hardcoded-tables --enable-libfreetype --enable-libopenh264 --enable-pic --enable-pthreads --enable-shared --disable-static --enable-version3 --enable-zlib --enable-libmp3lame\n",
      "  libavutil      56. 51.100 / 56. 51.100\n",
      "  libavcodec     58. 91.100 / 58. 91.100\n",
      "  libavformat    58. 45.100 / 58. 45.100\n",
      "  libavdevice    58. 10.100 / 58. 10.100\n",
      "  libavfilter     7. 85.100 /  7. 85.100\n",
      "  libavresample   4.  0.  0 /  4.  0.  0\n",
      "  libswscale      5.  7.100 /  5.  7.100\n",
      "  libswresample   3.  7.100 /  3.  7.100\n",
      "Input #0, mov,mp4,m4a,3gp,3g2,mj2, from 'source_1.mp4':\n",
      "  Metadata:\n",
      "    major_brand     : isom\n",
      "    minor_version   : 512\n",
      "    compatible_brands: isomiso2avc1mp41\n",
      "    encoder         : Lavf61.6.100\n",
      "  Duration: 00:09:42.19, start: 0.000000, bitrate: 1426 kb/s\n",
      "    Stream #0:0(und): Video: h264 (High) (avc1 / 0x31637661), yuv420p(tv, bt709), 1920x1080 [SAR 1:1 DAR 16:9], 1292 kb/s, 23.98 fps, 23.98 tbr, 24k tbn, 47.95 tbc (default)\n",
      "    Metadata:\n",
      "      handler_name    : VideoHandler\n",
      "    Stream #0:1(eng): Audio: aac (LC) (mp4a / 0x6134706D), 44100 Hz, stereo, fltp, 128 kb/s (default)\n",
      "    Metadata:\n",
      "      handler_name    : ISO Media file produced by Google Inc.\n",
      "output_clips//clip_6.mp4: No such file or directory\n",
      "ffmpeg version 4.3 Copyright (c) 2000-2020 the FFmpeg developers\n",
      "  built with gcc 7.3.0 (crosstool-NG 1.23.0.449-a04d0)\n",
      "  configuration: --prefix=/home/lovecrush/miniconda3 --cc=/opt/conda/conda-bld/ffmpeg_1597178665428/_build_env/bin/x86_64-conda_cos6-linux-gnu-cc --disable-doc --disable-openssl --enable-avresample --enable-gnutls --enable-hardcoded-tables --enable-libfreetype --enable-libopenh264 --enable-pic --enable-pthreads --enable-shared --disable-static --enable-version3 --enable-zlib --enable-libmp3lame\n",
      "  libavutil      56. 51.100 / 56. 51.100\n",
      "  libavcodec     58. 91.100 / 58. 91.100\n",
      "  libavformat    58. 45.100 / 58. 45.100\n",
      "  libavdevice    58. 10.100 / 58. 10.100\n",
      "  libavfilter     7. 85.100 /  7. 85.100\n",
      "  libavresample   4.  0.  0 /  4.  0.  0\n",
      "  libswscale      5.  7.100 /  5.  7.100\n",
      "  libswresample   3.  7.100 /  3.  7.100\n",
      "Input #0, mov,mp4,m4a,3gp,3g2,mj2, from 'source_1.mp4':\n",
      "  Metadata:\n",
      "    major_brand     : isom\n",
      "    minor_version   : 512\n",
      "    compatible_brands: isomiso2avc1mp41\n",
      "    encoder         : Lavf61.6.100\n",
      "  Duration: 00:09:42.19, start: 0.000000, bitrate: 1426 kb/s\n",
      "    Stream #0:0(und): Video: h264 (High) (avc1 / 0x31637661), yuv420p(tv, bt709), 1920x1080 [SAR 1:1 DAR 16:9], 1292 kb/s, 23.98 fps, 23.98 tbr, 24k tbn, 47.95 tbc (default)\n",
      "    Metadata:\n",
      "      handler_name    : VideoHandler\n",
      "    Stream #0:1(eng): Audio: aac (LC) (mp4a / 0x6134706D), 44100 Hz, stereo, fltp, 128 kb/s (default)\n",
      "    Metadata:\n",
      "      handler_name    : ISO Media file produced by Google Inc.\n",
      "output_clips//clip_7.mp4: No such file or directory\n",
      "ffmpeg version 4.3 Copyright (c) 2000-2020 the FFmpeg developers\n",
      "  built with gcc 7.3.0 (crosstool-NG 1.23.0.449-a04d0)\n",
      "  configuration: --prefix=/home/lovecrush/miniconda3 --cc=/opt/conda/conda-bld/ffmpeg_1597178665428/_build_env/bin/x86_64-conda_cos6-linux-gnu-cc --disable-doc --disable-openssl --enable-avresample --enable-gnutls --enable-hardcoded-tables --enable-libfreetype --enable-libopenh264 --enable-pic --enable-pthreads --enable-shared --disable-static --enable-version3 --enable-zlib --enable-libmp3lame\n",
      "  libavutil      56. 51.100 / 56. 51.100\n",
      "  libavcodec     58. 91.100 / 58. 91.100\n",
      "  libavformat    58. 45.100 / 58. 45.100\n",
      "  libavdevice    58. 10.100 / 58. 10.100\n",
      "  libavfilter     7. 85.100 /  7. 85.100\n",
      "  libavresample   4.  0.  0 /  4.  0.  0\n",
      "  libswscale      5.  7.100 /  5.  7.100\n",
      "  libswresample   3.  7.100 /  3.  7.100\n",
      "Input #0, mov,mp4,m4a,3gp,3g2,mj2, from 'source_1.mp4':\n",
      "  Metadata:\n",
      "    major_brand     : isom\n",
      "    minor_version   : 512\n",
      "    compatible_brands: isomiso2avc1mp41\n",
      "    encoder         : Lavf61.6.100\n",
      "  Duration: 00:09:42.19, start: 0.000000, bitrate: 1426 kb/s\n",
      "    Stream #0:0(und): Video: h264 (High) (avc1 / 0x31637661), yuv420p(tv, bt709), 1920x1080 [SAR 1:1 DAR 16:9], 1292 kb/s, 23.98 fps, 23.98 tbr, 24k tbn, 47.95 tbc (default)\n",
      "    Metadata:\n",
      "      handler_name    : VideoHandler\n",
      "    Stream #0:1(eng): Audio: aac (LC) (mp4a / 0x6134706D), 44100 Hz, stereo, fltp, 128 kb/s (default)\n",
      "    Metadata:\n",
      "      handler_name    : ISO Media file produced by Google Inc.\n",
      "output_clips//clip_8.mp4: No such file or directory\n"
     ]
    },
    {
     "name": "stdout",
     "output_type": "stream",
     "text": [
      "Lỗi khi xử lý clip 1: ffmpeg error (see stderr output for detail)\n",
      "Lỗi khi xử lý clip 2: ffmpeg error (see stderr output for detail)\n",
      "Lỗi khi xử lý clip 3: ffmpeg error (see stderr output for detail)\n",
      "Lỗi khi xử lý clip 4: ffmpeg error (see stderr output for detail)\n",
      "Lỗi khi xử lý clip 5: ffmpeg error (see stderr output for detail)\n",
      "Lỗi khi xử lý clip 6: ffmpeg error (see stderr output for detail)\n",
      "Lỗi khi xử lý clip 7: ffmpeg error (see stderr output for detail)\n",
      "Lỗi khi xử lý clip 8: ffmpeg error (see stderr output for detail)\n",
      "Lỗi khi xử lý clip 9: ffmpeg error (see stderr output for detail)\n"
     ]
    },
    {
     "name": "stderr",
     "output_type": "stream",
     "text": [
      "ffmpeg version 4.3 Copyright (c) 2000-2020 the FFmpeg developers\n",
      "  built with gcc 7.3.0 (crosstool-NG 1.23.0.449-a04d0)\n",
      "  configuration: --prefix=/home/lovecrush/miniconda3 --cc=/opt/conda/conda-bld/ffmpeg_1597178665428/_build_env/bin/x86_64-conda_cos6-linux-gnu-cc --disable-doc --disable-openssl --enable-avresample --enable-gnutls --enable-hardcoded-tables --enable-libfreetype --enable-libopenh264 --enable-pic --enable-pthreads --enable-shared --disable-static --enable-version3 --enable-zlib --enable-libmp3lame\n",
      "  libavutil      56. 51.100 / 56. 51.100\n",
      "  libavcodec     58. 91.100 / 58. 91.100\n",
      "  libavformat    58. 45.100 / 58. 45.100\n",
      "  libavdevice    58. 10.100 / 58. 10.100\n",
      "  libavfilter     7. 85.100 /  7. 85.100\n",
      "  libavresample   4.  0.  0 /  4.  0.  0\n",
      "  libswscale      5.  7.100 /  5.  7.100\n",
      "  libswresample   3.  7.100 /  3.  7.100\n",
      "Input #0, mov,mp4,m4a,3gp,3g2,mj2, from 'source_1.mp4':\n",
      "  Metadata:\n",
      "    major_brand     : isom\n",
      "    minor_version   : 512\n",
      "    compatible_brands: isomiso2avc1mp41\n",
      "    encoder         : Lavf61.6.100\n",
      "  Duration: 00:09:42.19, start: 0.000000, bitrate: 1426 kb/s\n",
      "    Stream #0:0(und): Video: h264 (High) (avc1 / 0x31637661), yuv420p(tv, bt709), 1920x1080 [SAR 1:1 DAR 16:9], 1292 kb/s, 23.98 fps, 23.98 tbr, 24k tbn, 47.95 tbc (default)\n",
      "    Metadata:\n",
      "      handler_name    : VideoHandler\n",
      "    Stream #0:1(eng): Audio: aac (LC) (mp4a / 0x6134706D), 44100 Hz, stereo, fltp, 128 kb/s (default)\n",
      "    Metadata:\n",
      "      handler_name    : ISO Media file produced by Google Inc.\n",
      "output_clips//clip_9.mp4: No such file or directory\n",
      "ffmpeg version 4.3 Copyright (c) 2000-2020 the FFmpeg developers\n",
      "  built with gcc 7.3.0 (crosstool-NG 1.23.0.449-a04d0)\n",
      "  configuration: --prefix=/home/lovecrush/miniconda3 --cc=/opt/conda/conda-bld/ffmpeg_1597178665428/_build_env/bin/x86_64-conda_cos6-linux-gnu-cc --disable-doc --disable-openssl --enable-avresample --enable-gnutls --enable-hardcoded-tables --enable-libfreetype --enable-libopenh264 --enable-pic --enable-pthreads --enable-shared --disable-static --enable-version3 --enable-zlib --enable-libmp3lame\n",
      "  libavutil      56. 51.100 / 56. 51.100\n",
      "  libavcodec     58. 91.100 / 58. 91.100\n",
      "  libavformat    58. 45.100 / 58. 45.100\n",
      "  libavdevice    58. 10.100 / 58. 10.100\n",
      "  libavfilter     7. 85.100 /  7. 85.100\n",
      "  libavresample   4.  0.  0 /  4.  0.  0\n",
      "  libswscale      5.  7.100 /  5.  7.100\n",
      "  libswresample   3.  7.100 /  3.  7.100\n",
      "Input #0, mov,mp4,m4a,3gp,3g2,mj2, from 'source_1.mp4':\n",
      "  Metadata:\n",
      "    major_brand     : isom\n",
      "    minor_version   : 512\n",
      "    compatible_brands: isomiso2avc1mp41\n",
      "    encoder         : Lavf61.6.100\n",
      "  Duration: 00:09:42.19, start: 0.000000, bitrate: 1426 kb/s\n",
      "    Stream #0:0(und): Video: h264 (High) (avc1 / 0x31637661), yuv420p(tv, bt709), 1920x1080 [SAR 1:1 DAR 16:9], 1292 kb/s, 23.98 fps, 23.98 tbr, 24k tbn, 47.95 tbc (default)\n",
      "    Metadata:\n",
      "      handler_name    : VideoHandler\n",
      "    Stream #0:1(eng): Audio: aac (LC) (mp4a / 0x6134706D), 44100 Hz, stereo, fltp, 128 kb/s (default)\n",
      "    Metadata:\n",
      "      handler_name    : ISO Media file produced by Google Inc.\n",
      "output_clips//clip_10.mp4: No such file or directory\n",
      "ffmpeg version 4.3 Copyright (c) 2000-2020 the FFmpeg developers\n",
      "  built with gcc 7.3.0 (crosstool-NG 1.23.0.449-a04d0)\n",
      "  configuration: --prefix=/home/lovecrush/miniconda3 --cc=/opt/conda/conda-bld/ffmpeg_1597178665428/_build_env/bin/x86_64-conda_cos6-linux-gnu-cc --disable-doc --disable-openssl --enable-avresample --enable-gnutls --enable-hardcoded-tables --enable-libfreetype --enable-libopenh264 --enable-pic --enable-pthreads --enable-shared --disable-static --enable-version3 --enable-zlib --enable-libmp3lame\n",
      "  libavutil      56. 51.100 / 56. 51.100\n",
      "  libavcodec     58. 91.100 / 58. 91.100\n",
      "  libavformat    58. 45.100 / 58. 45.100\n",
      "  libavdevice    58. 10.100 / 58. 10.100\n",
      "  libavfilter     7. 85.100 /  7. 85.100\n",
      "  libavresample   4.  0.  0 /  4.  0.  0\n",
      "  libswscale      5.  7.100 /  5.  7.100\n",
      "  libswresample   3.  7.100 /  3.  7.100\n",
      "Input #0, mov,mp4,m4a,3gp,3g2,mj2, from 'source_1.mp4':\n",
      "  Metadata:\n",
      "    major_brand     : isom\n",
      "    minor_version   : 512\n",
      "    compatible_brands: isomiso2avc1mp41\n",
      "    encoder         : Lavf61.6.100\n",
      "  Duration: 00:09:42.19, start: 0.000000, bitrate: 1426 kb/s\n",
      "    Stream #0:0(und): Video: h264 (High) (avc1 / 0x31637661), yuv420p(tv, bt709), 1920x1080 [SAR 1:1 DAR 16:9], 1292 kb/s, 23.98 fps, 23.98 tbr, 24k tbn, 47.95 tbc (default)\n",
      "    Metadata:\n",
      "      handler_name    : VideoHandler\n",
      "    Stream #0:1(eng): Audio: aac (LC) (mp4a / 0x6134706D), 44100 Hz, stereo, fltp, 128 kb/s (default)\n",
      "    Metadata:\n",
      "      handler_name    : ISO Media file produced by Google Inc.\n",
      "output_clips//clip_11.mp4: No such file or directory\n",
      "ffmpeg version 4.3 Copyright (c) 2000-2020 the FFmpeg developers\n",
      "  built with gcc 7.3.0 (crosstool-NG 1.23.0.449-a04d0)\n",
      "  configuration: --prefix=/home/lovecrush/miniconda3 --cc=/opt/conda/conda-bld/ffmpeg_1597178665428/_build_env/bin/x86_64-conda_cos6-linux-gnu-cc --disable-doc --disable-openssl --enable-avresample --enable-gnutls --enable-hardcoded-tables --enable-libfreetype --enable-libopenh264 --enable-pic --enable-pthreads --enable-shared --disable-static --enable-version3 --enable-zlib --enable-libmp3lame\n",
      "  libavutil      56. 51.100 / 56. 51.100\n",
      "  libavcodec     58. 91.100 / 58. 91.100\n",
      "  libavformat    58. 45.100 / 58. 45.100\n",
      "  libavdevice    58. 10.100 / 58. 10.100\n",
      "  libavfilter     7. 85.100 /  7. 85.100\n",
      "  libavresample   4.  0.  0 /  4.  0.  0\n",
      "  libswscale      5.  7.100 /  5.  7.100\n",
      "  libswresample   3.  7.100 /  3.  7.100\n",
      "Input #0, mov,mp4,m4a,3gp,3g2,mj2, from 'source_1.mp4':\n",
      "  Metadata:\n",
      "    major_brand     : isom\n",
      "    minor_version   : 512\n",
      "    compatible_brands: isomiso2avc1mp41\n",
      "    encoder         : Lavf61.6.100\n",
      "  Duration: 00:09:42.19, start: 0.000000, bitrate: 1426 kb/s\n",
      "    Stream #0:0(und): Video: h264 (High) (avc1 / 0x31637661), yuv420p(tv, bt709), 1920x1080 [SAR 1:1 DAR 16:9], 1292 kb/s, 23.98 fps, 23.98 tbr, 24k tbn, 47.95 tbc (default)\n",
      "    Metadata:\n",
      "      handler_name    : VideoHandler\n",
      "    Stream #0:1(eng): Audio: aac (LC) (mp4a / 0x6134706D), 44100 Hz, stereo, fltp, 128 kb/s (default)\n",
      "    Metadata:\n",
      "      handler_name    : ISO Media file produced by Google Inc.\n",
      "output_clips//clip_12.mp4: No such file or directory\n",
      "ffmpeg version 4.3 Copyright (c) 2000-2020 the FFmpeg developers\n",
      "  built with gcc 7.3.0 (crosstool-NG 1.23.0.449-a04d0)\n",
      "  configuration: --prefix=/home/lovecrush/miniconda3 --cc=/opt/conda/conda-bld/ffmpeg_1597178665428/_build_env/bin/x86_64-conda_cos6-linux-gnu-cc --disable-doc --disable-openssl --enable-avresample --enable-gnutls --enable-hardcoded-tables --enable-libfreetype --enable-libopenh264 --enable-pic --enable-pthreads --enable-shared --disable-static --enable-version3 --enable-zlib --enable-libmp3lame\n",
      "  libavutil      56. 51.100 / 56. 51.100\n",
      "  libavcodec     58. 91.100 / 58. 91.100\n",
      "  libavformat    58. 45.100 / 58. 45.100\n",
      "  libavdevice    58. 10.100 / 58. 10.100\n",
      "  libavfilter     7. 85.100 /  7. 85.100\n",
      "  libavresample   4.  0.  0 /  4.  0.  0\n",
      "  libswscale      5.  7.100 /  5.  7.100\n",
      "  libswresample   3.  7.100 /  3.  7.100\n",
      "Input #0, mov,mp4,m4a,3gp,3g2,mj2, from 'source_1.mp4':\n",
      "  Metadata:\n",
      "    major_brand     : isom\n",
      "    minor_version   : 512\n",
      "    compatible_brands: isomiso2avc1mp41\n",
      "    encoder         : Lavf61.6.100\n",
      "  Duration: 00:09:42.19, start: 0.000000, bitrate: 1426 kb/s\n",
      "    Stream #0:0(und): Video: h264 (High) (avc1 / 0x31637661), yuv420p(tv, bt709), 1920x1080 [SAR 1:1 DAR 16:9], 1292 kb/s, 23.98 fps, 23.98 tbr, 24k tbn, 47.95 tbc (default)\n",
      "    Metadata:\n",
      "      handler_name    : VideoHandler\n",
      "    Stream #0:1(eng): Audio: aac (LC) (mp4a / 0x6134706D), 44100 Hz, stereo, fltp, 128 kb/s (default)\n",
      "    Metadata:\n",
      "      handler_name    : ISO Media file produced by Google Inc.\n",
      "output_clips//clip_13.mp4: No such file or directory\n",
      "ffmpeg version 4.3 Copyright (c) 2000-2020 the FFmpeg developers\n",
      "  built with gcc 7.3.0 (crosstool-NG 1.23.0.449-a04d0)\n",
      "  configuration: --prefix=/home/lovecrush/miniconda3 --cc=/opt/conda/conda-bld/ffmpeg_1597178665428/_build_env/bin/x86_64-conda_cos6-linux-gnu-cc --disable-doc --disable-openssl --enable-avresample --enable-gnutls --enable-hardcoded-tables --enable-libfreetype --enable-libopenh264 --enable-pic --enable-pthreads --enable-shared --disable-static --enable-version3 --enable-zlib --enable-libmp3lame\n",
      "  libavutil      56. 51.100 / 56. 51.100\n",
      "  libavcodec     58. 91.100 / 58. 91.100\n",
      "  libavformat    58. 45.100 / 58. 45.100\n",
      "  libavdevice    58. 10.100 / 58. 10.100\n",
      "  libavfilter     7. 85.100 /  7. 85.100\n",
      "  libavresample   4.  0.  0 /  4.  0.  0\n",
      "  libswscale      5.  7.100 /  5.  7.100\n",
      "  libswresample   3.  7.100 /  3.  7.100\n",
      "Input #0, mov,mp4,m4a,3gp,3g2,mj2, from 'source_1.mp4':\n",
      "  Metadata:\n",
      "    major_brand     : isom\n",
      "    minor_version   : 512\n",
      "    compatible_brands: isomiso2avc1mp41\n",
      "    encoder         : Lavf61.6.100\n",
      "  Duration: 00:09:42.19, start: 0.000000, bitrate: 1426 kb/s\n",
      "    Stream #0:0(und): Video: h264 (High) (avc1 / 0x31637661), yuv420p(tv, bt709), 1920x1080 [SAR 1:1 DAR 16:9], 1292 kb/s, 23.98 fps, 23.98 tbr, 24k tbn, 47.95 tbc (default)\n",
      "    Metadata:\n",
      "      handler_name    : VideoHandler\n",
      "    Stream #0:1(eng): Audio: aac (LC) (mp4a / 0x6134706D), 44100 Hz, stereo, fltp, 128 kb/s (default)\n",
      "    Metadata:\n",
      "      handler_name    : ISO Media file produced by Google Inc.\n",
      "output_clips//clip_14.mp4: No such file or directory\n",
      "ffmpeg version 4.3 Copyright (c) 2000-2020 the FFmpeg developers\n",
      "  built with gcc 7.3.0 (crosstool-NG 1.23.0.449-a04d0)\n",
      "  configuration: --prefix=/home/lovecrush/miniconda3 --cc=/opt/conda/conda-bld/ffmpeg_1597178665428/_build_env/bin/x86_64-conda_cos6-linux-gnu-cc --disable-doc --disable-openssl --enable-avresample --enable-gnutls --enable-hardcoded-tables --enable-libfreetype --enable-libopenh264 --enable-pic --enable-pthreads --enable-shared --disable-static --enable-version3 --enable-zlib --enable-libmp3lame\n",
      "  libavutil      56. 51.100 / 56. 51.100\n",
      "  libavcodec     58. 91.100 / 58. 91.100\n",
      "  libavformat    58. 45.100 / 58. 45.100\n",
      "  libavdevice    58. 10.100 / 58. 10.100\n",
      "  libavfilter     7. 85.100 /  7. 85.100\n",
      "  libavresample   4.  0.  0 /  4.  0.  0\n",
      "  libswscale      5.  7.100 /  5.  7.100\n",
      "  libswresample   3.  7.100 /  3.  7.100\n",
      "Input #0, mov,mp4,m4a,3gp,3g2,mj2, from 'source_1.mp4':\n",
      "  Metadata:\n",
      "    major_brand     : isom\n",
      "    minor_version   : 512\n",
      "    compatible_brands: isomiso2avc1mp41\n",
      "    encoder         : Lavf61.6.100\n",
      "  Duration: 00:09:42.19, start: 0.000000, bitrate: 1426 kb/s\n",
      "    Stream #0:0(und): Video: h264 (High) (avc1 / 0x31637661), yuv420p(tv, bt709), 1920x1080 [SAR 1:1 DAR 16:9], 1292 kb/s, 23.98 fps, 23.98 tbr, 24k tbn, 47.95 tbc (default)\n",
      "    Metadata:\n",
      "      handler_name    : VideoHandler\n",
      "    Stream #0:1(eng): Audio: aac (LC) (mp4a / 0x6134706D), 44100 Hz, stereo, fltp, 128 kb/s (default)\n",
      "    Metadata:\n",
      "      handler_name    : ISO Media file produced by Google Inc.\n",
      "output_clips//clip_15.mp4: No such file or directory\n",
      "ffmpeg version 4.3 Copyright (c) 2000-2020 the FFmpeg developers\n",
      "  built with gcc 7.3.0 (crosstool-NG 1.23.0.449-a04d0)\n",
      "  configuration: --prefix=/home/lovecrush/miniconda3 --cc=/opt/conda/conda-bld/ffmpeg_1597178665428/_build_env/bin/x86_64-conda_cos6-linux-gnu-cc --disable-doc --disable-openssl --enable-avresample --enable-gnutls --enable-hardcoded-tables --enable-libfreetype --enable-libopenh264 --enable-pic --enable-pthreads --enable-shared --disable-static --enable-version3 --enable-zlib --enable-libmp3lame\n",
      "  libavutil      56. 51.100 / 56. 51.100\n",
      "  libavcodec     58. 91.100 / 58. 91.100\n",
      "  libavformat    58. 45.100 / 58. 45.100\n",
      "  libavdevice    58. 10.100 / 58. 10.100\n",
      "  libavfilter     7. 85.100 /  7. 85.100\n",
      "  libavresample   4.  0.  0 /  4.  0.  0\n",
      "  libswscale      5.  7.100 /  5.  7.100\n",
      "  libswresample   3.  7.100 /  3.  7.100\n",
      "Input #0, mov,mp4,m4a,3gp,3g2,mj2, from 'source_1.mp4':\n",
      "  Metadata:\n",
      "    major_brand     : isom\n",
      "    minor_version   : 512\n",
      "    compatible_brands: isomiso2avc1mp41\n",
      "    encoder         : Lavf61.6.100\n",
      "  Duration: 00:09:42.19, start: 0.000000, bitrate: 1426 kb/s\n",
      "    Stream #0:0(und): Video: h264 (High) (avc1 / 0x31637661), yuv420p(tv, bt709), 1920x1080 [SAR 1:1 DAR 16:9], 1292 kb/s, 23.98 fps, 23.98 tbr, 24k tbn, 47.95 tbc (default)\n",
      "    Metadata:\n",
      "      handler_name    : VideoHandler\n",
      "    Stream #0:1(eng): Audio: aac (LC) (mp4a / 0x6134706D), 44100 Hz, stereo, fltp, 128 kb/s (default)\n",
      "    Metadata:\n",
      "      handler_name    : ISO Media file produced by Google Inc.\n",
      "output_clips//clip_16.mp4: No such file or directory\n"
     ]
    },
    {
     "name": "stdout",
     "output_type": "stream",
     "text": [
      "Lỗi khi xử lý clip 10: ffmpeg error (see stderr output for detail)\n",
      "Lỗi khi xử lý clip 11: ffmpeg error (see stderr output for detail)\n",
      "Lỗi khi xử lý clip 12: ffmpeg error (see stderr output for detail)\n",
      "Lỗi khi xử lý clip 13: ffmpeg error (see stderr output for detail)\n",
      "Lỗi khi xử lý clip 14: ffmpeg error (see stderr output for detail)\n",
      "Lỗi khi xử lý clip 15: ffmpeg error (see stderr output for detail)\n",
      "Lỗi khi xử lý clip 16: ffmpeg error (see stderr output for detail)\n",
      "Lỗi khi xử lý clip 17: ffmpeg error (see stderr output for detail)\n",
      "Lỗi khi xử lý clip 18: ffmpeg error (see stderr output for detail)\n",
      "Lỗi khi xử lý clip 19: ffmpeg error (see stderr output for detail)\n",
      "Lỗi khi xử lý clip 20: ffmpeg error (see stderr output for detail)\n",
      "Lỗi khi xử lý clip 21: ffmpeg error (see stderr output for detail)\n",
      "Lỗi khi xử lý clip 22: ffmpeg error (see stderr output for detail)\n"
     ]
    },
    {
     "name": "stderr",
     "output_type": "stream",
     "text": [
      "ffmpeg version 4.3 Copyright (c) 2000-2020 the FFmpeg developers\n",
      "  built with gcc 7.3.0 (crosstool-NG 1.23.0.449-a04d0)\n",
      "  configuration: --prefix=/home/lovecrush/miniconda3 --cc=/opt/conda/conda-bld/ffmpeg_1597178665428/_build_env/bin/x86_64-conda_cos6-linux-gnu-cc --disable-doc --disable-openssl --enable-avresample --enable-gnutls --enable-hardcoded-tables --enable-libfreetype --enable-libopenh264 --enable-pic --enable-pthreads --enable-shared --disable-static --enable-version3 --enable-zlib --enable-libmp3lame\n",
      "  libavutil      56. 51.100 / 56. 51.100\n",
      "  libavcodec     58. 91.100 / 58. 91.100\n",
      "  libavformat    58. 45.100 / 58. 45.100\n",
      "  libavdevice    58. 10.100 / 58. 10.100\n",
      "  libavfilter     7. 85.100 /  7. 85.100\n",
      "  libavresample   4.  0.  0 /  4.  0.  0\n",
      "  libswscale      5.  7.100 /  5.  7.100\n",
      "  libswresample   3.  7.100 /  3.  7.100\n",
      "Input #0, mov,mp4,m4a,3gp,3g2,mj2, from 'source_1.mp4':\n",
      "  Metadata:\n",
      "    major_brand     : isom\n",
      "    minor_version   : 512\n",
      "    compatible_brands: isomiso2avc1mp41\n",
      "    encoder         : Lavf61.6.100\n",
      "  Duration: 00:09:42.19, start: 0.000000, bitrate: 1426 kb/s\n",
      "    Stream #0:0(und): Video: h264 (High) (avc1 / 0x31637661), yuv420p(tv, bt709), 1920x1080 [SAR 1:1 DAR 16:9], 1292 kb/s, 23.98 fps, 23.98 tbr, 24k tbn, 47.95 tbc (default)\n",
      "    Metadata:\n",
      "      handler_name    : VideoHandler\n",
      "    Stream #0:1(eng): Audio: aac (LC) (mp4a / 0x6134706D), 44100 Hz, stereo, fltp, 128 kb/s (default)\n",
      "    Metadata:\n",
      "      handler_name    : ISO Media file produced by Google Inc.\n",
      "output_clips//clip_17.mp4: No such file or directory\n",
      "ffmpeg version 4.3 Copyright (c) 2000-2020 the FFmpeg developers\n",
      "  built with gcc 7.3.0 (crosstool-NG 1.23.0.449-a04d0)\n",
      "  configuration: --prefix=/home/lovecrush/miniconda3 --cc=/opt/conda/conda-bld/ffmpeg_1597178665428/_build_env/bin/x86_64-conda_cos6-linux-gnu-cc --disable-doc --disable-openssl --enable-avresample --enable-gnutls --enable-hardcoded-tables --enable-libfreetype --enable-libopenh264 --enable-pic --enable-pthreads --enable-shared --disable-static --enable-version3 --enable-zlib --enable-libmp3lame\n",
      "  libavutil      56. 51.100 / 56. 51.100\n",
      "  libavcodec     58. 91.100 / 58. 91.100\n",
      "  libavformat    58. 45.100 / 58. 45.100\n",
      "  libavdevice    58. 10.100 / 58. 10.100\n",
      "  libavfilter     7. 85.100 /  7. 85.100\n",
      "  libavresample   4.  0.  0 /  4.  0.  0\n",
      "  libswscale      5.  7.100 /  5.  7.100\n",
      "  libswresample   3.  7.100 /  3.  7.100\n",
      "Input #0, mov,mp4,m4a,3gp,3g2,mj2, from 'source_1.mp4':\n",
      "  Metadata:\n",
      "    major_brand     : isom\n",
      "    minor_version   : 512\n",
      "    compatible_brands: isomiso2avc1mp41\n",
      "    encoder         : Lavf61.6.100\n",
      "  Duration: 00:09:42.19, start: 0.000000, bitrate: 1426 kb/s\n",
      "    Stream #0:0(und): Video: h264 (High) (avc1 / 0x31637661), yuv420p(tv, bt709), 1920x1080 [SAR 1:1 DAR 16:9], 1292 kb/s, 23.98 fps, 23.98 tbr, 24k tbn, 47.95 tbc (default)\n",
      "    Metadata:\n",
      "      handler_name    : VideoHandler\n",
      "    Stream #0:1(eng): Audio: aac (LC) (mp4a / 0x6134706D), 44100 Hz, stereo, fltp, 128 kb/s (default)\n",
      "    Metadata:\n",
      "      handler_name    : ISO Media file produced by Google Inc.\n",
      "output_clips//clip_18.mp4: No such file or directory\n",
      "ffmpeg version 4.3 Copyright (c) 2000-2020 the FFmpeg developers\n",
      "  built with gcc 7.3.0 (crosstool-NG 1.23.0.449-a04d0)\n",
      "  configuration: --prefix=/home/lovecrush/miniconda3 --cc=/opt/conda/conda-bld/ffmpeg_1597178665428/_build_env/bin/x86_64-conda_cos6-linux-gnu-cc --disable-doc --disable-openssl --enable-avresample --enable-gnutls --enable-hardcoded-tables --enable-libfreetype --enable-libopenh264 --enable-pic --enable-pthreads --enable-shared --disable-static --enable-version3 --enable-zlib --enable-libmp3lame\n",
      "  libavutil      56. 51.100 / 56. 51.100\n",
      "  libavcodec     58. 91.100 / 58. 91.100\n",
      "  libavformat    58. 45.100 / 58. 45.100\n",
      "  libavdevice    58. 10.100 / 58. 10.100\n",
      "  libavfilter     7. 85.100 /  7. 85.100\n",
      "  libavresample   4.  0.  0 /  4.  0.  0\n",
      "  libswscale      5.  7.100 /  5.  7.100\n",
      "  libswresample   3.  7.100 /  3.  7.100\n",
      "Input #0, mov,mp4,m4a,3gp,3g2,mj2, from 'source_1.mp4':\n",
      "  Metadata:\n",
      "    major_brand     : isom\n",
      "    minor_version   : 512\n",
      "    compatible_brands: isomiso2avc1mp41\n",
      "    encoder         : Lavf61.6.100\n",
      "  Duration: 00:09:42.19, start: 0.000000, bitrate: 1426 kb/s\n",
      "    Stream #0:0(und): Video: h264 (High) (avc1 / 0x31637661), yuv420p(tv, bt709), 1920x1080 [SAR 1:1 DAR 16:9], 1292 kb/s, 23.98 fps, 23.98 tbr, 24k tbn, 47.95 tbc (default)\n",
      "    Metadata:\n",
      "      handler_name    : VideoHandler\n",
      "    Stream #0:1(eng): Audio: aac (LC) (mp4a / 0x6134706D), 44100 Hz, stereo, fltp, 128 kb/s (default)\n",
      "    Metadata:\n",
      "      handler_name    : ISO Media file produced by Google Inc.\n",
      "output_clips//clip_19.mp4: No such file or directory\n",
      "ffmpeg version 4.3 Copyright (c) 2000-2020 the FFmpeg developers\n",
      "  built with gcc 7.3.0 (crosstool-NG 1.23.0.449-a04d0)\n",
      "  configuration: --prefix=/home/lovecrush/miniconda3 --cc=/opt/conda/conda-bld/ffmpeg_1597178665428/_build_env/bin/x86_64-conda_cos6-linux-gnu-cc --disable-doc --disable-openssl --enable-avresample --enable-gnutls --enable-hardcoded-tables --enable-libfreetype --enable-libopenh264 --enable-pic --enable-pthreads --enable-shared --disable-static --enable-version3 --enable-zlib --enable-libmp3lame\n",
      "  libavutil      56. 51.100 / 56. 51.100\n",
      "  libavcodec     58. 91.100 / 58. 91.100\n",
      "  libavformat    58. 45.100 / 58. 45.100\n",
      "  libavdevice    58. 10.100 / 58. 10.100\n",
      "  libavfilter     7. 85.100 /  7. 85.100\n",
      "  libavresample   4.  0.  0 /  4.  0.  0\n",
      "  libswscale      5.  7.100 /  5.  7.100\n",
      "  libswresample   3.  7.100 /  3.  7.100\n",
      "Input #0, mov,mp4,m4a,3gp,3g2,mj2, from 'source_1.mp4':\n",
      "  Metadata:\n",
      "    major_brand     : isom\n",
      "    minor_version   : 512\n",
      "    compatible_brands: isomiso2avc1mp41\n",
      "    encoder         : Lavf61.6.100\n",
      "  Duration: 00:09:42.19, start: 0.000000, bitrate: 1426 kb/s\n",
      "    Stream #0:0(und): Video: h264 (High) (avc1 / 0x31637661), yuv420p(tv, bt709), 1920x1080 [SAR 1:1 DAR 16:9], 1292 kb/s, 23.98 fps, 23.98 tbr, 24k tbn, 47.95 tbc (default)\n",
      "    Metadata:\n",
      "      handler_name    : VideoHandler\n",
      "    Stream #0:1(eng): Audio: aac (LC) (mp4a / 0x6134706D), 44100 Hz, stereo, fltp, 128 kb/s (default)\n",
      "    Metadata:\n",
      "      handler_name    : ISO Media file produced by Google Inc.\n",
      "output_clips//clip_20.mp4: No such file or directory\n",
      "ffmpeg version 4.3 Copyright (c) 2000-2020 the FFmpeg developers\n",
      "  built with gcc 7.3.0 (crosstool-NG 1.23.0.449-a04d0)\n",
      "  configuration: --prefix=/home/lovecrush/miniconda3 --cc=/opt/conda/conda-bld/ffmpeg_1597178665428/_build_env/bin/x86_64-conda_cos6-linux-gnu-cc --disable-doc --disable-openssl --enable-avresample --enable-gnutls --enable-hardcoded-tables --enable-libfreetype --enable-libopenh264 --enable-pic --enable-pthreads --enable-shared --disable-static --enable-version3 --enable-zlib --enable-libmp3lame\n",
      "  libavutil      56. 51.100 / 56. 51.100\n",
      "  libavcodec     58. 91.100 / 58. 91.100\n",
      "  libavformat    58. 45.100 / 58. 45.100\n",
      "  libavdevice    58. 10.100 / 58. 10.100\n",
      "  libavfilter     7. 85.100 /  7. 85.100\n",
      "  libavresample   4.  0.  0 /  4.  0.  0\n",
      "  libswscale      5.  7.100 /  5.  7.100\n",
      "  libswresample   3.  7.100 /  3.  7.100\n",
      "Input #0, mov,mp4,m4a,3gp,3g2,mj2, from 'source_1.mp4':\n",
      "  Metadata:\n",
      "    major_brand     : isom\n",
      "    minor_version   : 512\n",
      "    compatible_brands: isomiso2avc1mp41\n",
      "    encoder         : Lavf61.6.100\n",
      "  Duration: 00:09:42.19, start: 0.000000, bitrate: 1426 kb/s\n",
      "    Stream #0:0(und): Video: h264 (High) (avc1 / 0x31637661), yuv420p(tv, bt709), 1920x1080 [SAR 1:1 DAR 16:9], 1292 kb/s, 23.98 fps, 23.98 tbr, 24k tbn, 47.95 tbc (default)\n",
      "    Metadata:\n",
      "      handler_name    : VideoHandler\n",
      "    Stream #0:1(eng): Audio: aac (LC) (mp4a / 0x6134706D), 44100 Hz, stereo, fltp, 128 kb/s (default)\n",
      "    Metadata:\n",
      "      handler_name    : ISO Media file produced by Google Inc.\n",
      "output_clips//clip_21.mp4: No such file or directory\n",
      "ffmpeg version 4.3 Copyright (c) 2000-2020 the FFmpeg developers\n",
      "  built with gcc 7.3.0 (crosstool-NG 1.23.0.449-a04d0)\n",
      "  configuration: --prefix=/home/lovecrush/miniconda3 --cc=/opt/conda/conda-bld/ffmpeg_1597178665428/_build_env/bin/x86_64-conda_cos6-linux-gnu-cc --disable-doc --disable-openssl --enable-avresample --enable-gnutls --enable-hardcoded-tables --enable-libfreetype --enable-libopenh264 --enable-pic --enable-pthreads --enable-shared --disable-static --enable-version3 --enable-zlib --enable-libmp3lame\n",
      "  libavutil      56. 51.100 / 56. 51.100\n",
      "  libavcodec     58. 91.100 / 58. 91.100\n",
      "  libavformat    58. 45.100 / 58. 45.100\n",
      "  libavdevice    58. 10.100 / 58. 10.100\n",
      "  libavfilter     7. 85.100 /  7. 85.100\n",
      "  libavresample   4.  0.  0 /  4.  0.  0\n",
      "  libswscale      5.  7.100 /  5.  7.100\n",
      "  libswresample   3.  7.100 /  3.  7.100\n",
      "Input #0, mov,mp4,m4a,3gp,3g2,mj2, from 'source_1.mp4':\n",
      "  Metadata:\n",
      "    major_brand     : isom\n",
      "    minor_version   : 512\n",
      "    compatible_brands: isomiso2avc1mp41\n",
      "    encoder         : Lavf61.6.100\n",
      "  Duration: 00:09:42.19, start: 0.000000, bitrate: 1426 kb/s\n",
      "    Stream #0:0(und): Video: h264 (High) (avc1 / 0x31637661), yuv420p(tv, bt709), 1920x1080 [SAR 1:1 DAR 16:9], 1292 kb/s, 23.98 fps, 23.98 tbr, 24k tbn, 47.95 tbc (default)\n",
      "    Metadata:\n",
      "      handler_name    : VideoHandler\n",
      "    Stream #0:1(eng): Audio: aac (LC) (mp4a / 0x6134706D), 44100 Hz, stereo, fltp, 128 kb/s (default)\n",
      "    Metadata:\n",
      "      handler_name    : ISO Media file produced by Google Inc.\n",
      "output_clips//clip_22.mp4: No such file or directory\n"
     ]
    }
   ],
   "source": []
  },
  {
   "cell_type": "code",
   "execution_count": null,
   "metadata": {},
   "outputs": [],
   "source": []
  }
 ],
 "metadata": {
  "kernelspec": {
   "display_name": "base",
   "language": "python",
   "name": "python3"
  },
  "language_info": {
   "codemirror_mode": {
    "name": "ipython",
    "version": 3
   },
   "file_extension": ".py",
   "mimetype": "text/x-python",
   "name": "python",
   "nbconvert_exporter": "python",
   "pygments_lexer": "ipython3",
   "version": "3.12.2"
  }
 },
 "nbformat": 4,
 "nbformat_minor": 2
}
